<?xml version="1.0" encoding="utf-8"?>
<!-- Generator: Adobe Illustrator 21.0.2, SVG Export Plug-In . SVG Version: 6.00 Build 0)  -->
<svg version="1.1" id="Layer_1" xmlns="http://www.w3.org/2000/svg" xmlns:xlink="http://www.w3.org/1999/xlink" x="0px" y="0px"
	 viewBox="0 0 462 304.9" style="enable-background:new 0 0 462 304.9;" xml:space="preserve">
<style type="text/css">
	.st0{display:none;fill:#727AB0;}
	.st1{display:none;fill:#56C4C1;}
	.st2{display:none;fill:#FFCC67;}
	.st3{display:none;fill:#90D1BB;}
	.st4{display:none;}
	.st5{display:inline;fill:url(#XMLID_2_);}
	.st6{display:inline;}
	.st7{fill:url(#XMLID_3_);}
	.st8{fill:#727BB0;}
	.st9{fill:#F0685D;}
	.st10{fill:#90D1BB;}
	.st11{fill:#FFCC67;}
	.st12{fill:#42C3D3;}
	.st13{fill:#727AB0;}
</style>
<polygon class="st0" points="355.4,296.4 382.3,280.9 409.2,296.4 382.3,312 "/>
<polygon class="st0" points="-177.6,277.7 -177.7,308.8 -150.8,324.4 -150.7,293.3 "/>
<polygon class="st0" points="-204.7,324.1 -177.6,308.7 -177.5,277.6 -204.5,293 "/>
<polygon class="st1" points="-151.6,325.9 -178.6,341.4 -205.5,325.9 -178.6,310.3 "/>
<polygon class="st1" points="-106.9,195.2 -107,226.3 -80.2,241.9 -80,210.8 "/>
<polygon class="st2" points="-136.6,241.8 -109.6,226.4 -109.4,195.3 -136.4,210.7 "/>
<polygon class="st0" points="-30.4,219.9 -30.5,251 -3.6,266.7 -3.5,235.6 "/>
<polygon class="st1" points="-77.7,266.8 -50.7,251.4 -50.5,220.3 -77.5,235.7 "/>
<polygon class="st3" points="-3.5,269.4 -30.5,285 -57.4,269.4 -30.5,253.9 "/>
<polygon class="st3" points="-168.8,375.4 -141.8,360 -141.6,328.9 -168.6,344.3 "/>
<polygon class="st0" points="-108.3,-91.7 -135.3,-76.3 -135.5,-45.2 -108.5,-60.6 "/>
<polygon class="st3" points="-209.5,-45.9 -182.6,-61.4 -155.6,-45.8 -182.6,-30.3 "/>
<g class="st4">
	
		<linearGradient id="XMLID_2_" gradientUnits="userSpaceOnUse" x1="-59.2477" y1="1419.7449" x2="-86.2007" y2="1478.1431" gradientTransform="matrix(1 0 0 1 0 -1285.8)">
		<stop  offset="0.5919" style="stop-color:#91D0BA"/>
		<stop  offset="1" style="stop-color:#48B982"/>
	</linearGradient>
	<polygon id="XMLID_312_" class="st5" points="-95.6,208.9 -95.6,208.9 -97.6,163.8 -97.5,163.8 -60.1,139.6 -60.1,139.7 
		-58.1,184.7 -58.2,184.7 	"/>
	<g class="st6">
		
			<radialGradient id="XMLID_3_" cx="-138.7724" cy="1515.7693" r="93.341" gradientTransform="matrix(0.9338 0 0 0.9464 30.5603 -1244.6436)" gradientUnits="userSpaceOnUse">
			<stop  offset="0" style="stop-color:#0E0F1A"/>
			<stop  offset="8.470190e-03" style="stop-color:#0E0F1A"/>
			<stop  offset="0.5076" style="stop-color:#3FA0D0"/>
			<stop  offset="0.6779" style="stop-color:#3DB4D1"/>
			<stop  offset="1" style="stop-color:#42C3D2"/>
		</radialGradient>
		<polygon id="XMLID_311_" class="st7" points="-56.5,227.9 -58.8,183 -21.4,158.4 -21.4,158.4 -21.3,158.5 -21.3,158.5 -19,203.5 
			-56.3,228.1 -56.3,228 		"/>
		<polygon id="XMLID_310_" class="st8" points="-58.8,183 -56.5,227.9 -96.1,208.4 -96.1,208.4 -98.1,163.5 		"/>
	</g>
</g>
<g>
	<polygon class="st9" points="8.4,234 35.4,249.5 62.3,233.9 35.3,218.4 	"/>
	<polygon class="st10" points="-27,223.3 0,238.8 26.9,223.2 -0.1,207.7 	"/>
	<polygon class="st11" points="62.3,233.8 35.4,249.5 35.4,280.6 62.4,264.9 	"/>
	<polygon class="st12" points="0.1,238.8 0.1,269.9 27.1,285.4 27,254.3 	"/>
	<polygon class="st10" points="35.5,289.6 62.5,305.1 89.4,289.5 62.4,274 	"/>
</g>
<g>
	<polygon class="st12" points="-3.1,-25.6 24,-9.5 51.4,-24.9 24.3,-41 	"/>
	<polygon class="st12" points="-3.1,-25.6 24,-9.5 51.4,-24.9 24.3,-41 	"/>
	<polygon class="st13" points="24,-9.5 51,6.6 78.5,-8.8 51.4,-24.9 	"/>
	<polygon class="st13" points="24,-9.5 51,6.6 78.5,-8.8 51.4,-24.9 	"/>
	<polygon class="st12" points="-3.1,-25.6 24,-9.5 51.4,-24.9 24.3,-41 	"/>
	<polygon class="st9" points="141.5,-12.9 168.5,3.2 196,-12.2 168.9,-28.2 	"/>
	<polygon class="st12" points="51.4,-24.9 78.5,-8.8 105.9,-24.2 78.8,-40.3 	"/>
	<polygon class="st9" points="-30.5,-10.2 -3.5,5.9 24,-9.5 -3.1,-25.6 	"/>
	<polygon class="st12" points="-3.1,-25.6 24,-9.5 51.4,-24.9 24.3,-41 	"/>
	<polygon class="st10" points="105.9,-24.2 133,-8.1 160.4,-23.5 133.3,-39.6 	"/>
	<polygon class="st13" points="24,-9.5 51,6.6 78.5,-8.8 51.4,-24.9 	"/>
	<polygon class="st11" points="78.5,-8.8 105.5,7.3 133,-8.1 105.9,-24.2 	"/>
	<polygon class="st13" points="24,-9.5 23.6,22 50.6,38 51,6.6 	"/>
	<polygon class="st11" points="196,-12.2 168.5,3.2 168.1,34.7 195.6,19.3 	"/>
	<polygon class="st11" points="24,-9.5 -3.5,5.9 -3.9,37.3 23.6,21.9 	"/>
	<polygon class="st10" points="78.5,-8.8 51,6.6 50.6,38.1 78.1,22.7 	"/>
	<polygon class="st9" points="78.5,-8.8 78.1,22.7 105.1,38.7 105.5,7.3 	"/>
	<polygon class="st13" points="133,-8.1 105.5,7.3 105.1,38.7 132.6,23.3 	"/>
	<polygon class="st12" points="133,-8.1 132.6,23.4 159.6,39.5 160,8 	"/>
	<polygon class="st10" points="166.5,41.6 193.5,57.1 220.4,41.5 193.4,26 	"/>
	<polygon class="st9" points="-3.9,37.3 23.2,53.4 50.6,38 23.6,22 	"/>
	<polygon class="st10" points="22.8,84.9 23.2,53.4 -3.9,37.3 -4.3,68.8 	"/>
	<polygon class="st12" points="-31.7,84.2 -4.6,100.2 22.8,84.9 -4.2,68.8 	"/>
	<polygon class="st13" points="-4.6,100.3 22.5,116.3 49.9,101 22.8,84.9 	"/>
	<polygon class="st13" points="50.6,38 23.2,53.5 22.8,84.9 50.2,69.5 	"/>
	<polygon class="st13" points="50.6,38 77.7,54.1 105.1,38.7 78.1,22.7 	"/>
	<polygon class="st10" points="104.8,70.2 105.2,38.8 78.1,22.7 77.7,54.2 	"/>
	<polygon class="st11" points="22.1,147.8 22.4,116.3 -4.6,100.2 -5,131.7 	"/>
	<polygon class="st13" points="-32.4,147.1 -5.3,163.2 22.1,147.8 -4.9,131.7 	"/>
</g>
<g>
	<polygon class="st12" points="438.2,-63.5 411.1,-47.4 438.5,-32 465.6,-48.1 	"/>
	<polygon class="st12" points="438.2,-63.5 411.1,-47.4 438.5,-32 465.6,-48.1 	"/>
	<polygon class="st13" points="411.1,-47.4 384,-31.3 411.5,-15.9 438.5,-32 	"/>
	<polygon class="st13" points="411.1,-47.4 384,-31.3 411.5,-15.9 438.5,-32 	"/>
	<polygon class="st12" points="438.2,-63.5 411.1,-47.4 438.5,-32 465.6,-48.1 	"/>
	<polygon class="st9" points="293.6,-50.7 266.5,-34.7 294,-19.3 321,-35.4 	"/>
	<polygon class="st12" points="383.7,-62.8 356.6,-46.7 384,-31.3 411.1,-47.4 	"/>
	<polygon class="st9" points="465.6,-48.1 438.5,-32 466,-16.6 493,-32.7 	"/>
	<polygon class="st12" points="438.2,-63.5 411.1,-47.4 438.5,-32 465.6,-48.1 	"/>
	<polygon class="st10" points="329.2,-62.1 302.1,-46 329.5,-30.6 356.6,-46.7 	"/>
	<polygon class="st13" points="411.1,-47.4 384,-31.3 411.5,-15.9 438.5,-32 	"/>
	<polygon class="st11" points="356.6,-46.7 329.5,-30.6 357,-15.2 384,-31.3 	"/>
	<polygon class="st12" points="411.5,-15.9 411.9,15.5 438.9,-0.5 438.5,-32 	"/>
	<polygon class="st11" points="266.9,-3.2 294.4,12.2 294,-19.3 266.5,-34.7 	"/>
	<polygon class="st13" points="438.9,-0.6 466.4,14.8 466,-16.6 438.5,-32 	"/>
	<polygon class="st10" points="384.4,0.2 411.9,15.6 411.5,-15.9 384,-31.3 	"/>
	<polygon class="st9" points="357,-15.2 357.4,16.2 384.4,0.2 384,-31.3 	"/>
	<polygon class="st13" points="329.9,0.8 357.4,16.2 357,-15.2 329.5,-30.6 	"/>
	<polygon class="st12" points="302.5,-14.5 302.9,17 329.9,0.9 329.5,-30.6 	"/>
	<polygon class="st13" points="269.1,3.5 242.1,19 269,34.6 296,19.1 	"/>
	<polygon class="st13" points="438.9,-0.5 411.9,15.5 439.3,30.9 466.4,14.8 	"/>
	<polygon class="st10" points="466.8,46.3 466.4,14.8 439.4,30.9 439.8,62.4 	"/>
	<polygon class="st9" points="412.3,47 439.7,62.4 439.3,31 411.9,15.5 	"/>
	<polygon class="st12" points="384.5,0.2 357.4,16.2 384.8,31.6 411.9,15.5 	"/>
	<polygon class="st10" points="330,0.8 302.9,16.9 330.3,32.3 357.4,16.2 	"/>
	<polygon class="st13" points="384.9,31.7 385.2,63.2 412.3,47.1 411.9,15.6 	"/>
	<polygon class="st12" points="357.8,47.7 385.2,63.1 384.8,31.6 357.4,16.2 	"/>
	<polygon class="st11" points="330.4,32.3 330.8,63.8 357.8,47.7 357.4,16.2 	"/>
	<polygon class="st13" points="303.3,48.4 330.8,63.8 330.4,32.3 302.9,16.9 	"/>
	<polygon class="st12" points="303.3,48.4 276.2,64.5 303.7,79.8 330.7,63.8 	"/>
	<polygon class="st10" points="357.8,47.7 330.8,63.8 358.2,79.2 385.3,63.1 	"/>
	<polygon class="st12" points="412.4,47.1 385.3,63.1 412.7,78.5 439.8,62.4 	"/>
	<polygon class="st12" points="466.7,46.4 439.7,62.5 467.1,77.9 494.2,61.8 	"/>
	<polygon class="st13" points="439.8,62.5 412.8,78.5 440.2,93.9 467.3,77.8 	"/>
	<polygon class="st11" points="385.3,63.1 358.2,79.2 385.7,94.6 412.7,78.5 	"/>
	<polygon class="st9" points="330.8,63.8 303.7,79.9 331.2,95.2 358.2,79.2 	"/>
	<polygon class="st10" points="467.6,109.3 467.2,77.8 440.2,93.9 440.6,125.4 	"/>
	<polygon class="st13" points="467.6,109.3 440.5,125.4 468,140.8 495,124.7 	"/>
</g>
<g>
	<polygon class="st11" points="409,184.2 382,199.8 382.1,230.9 409,215.3 	"/>
	<polygon class="st10" points="382,231 409,246.5 435.9,230.9 408.9,215.4 	"/>
	<polygon class="st13" points="409,246.5 436,262 462.9,246.4 435.9,230.9 	"/>
	<polygon class="st9" points="463,246.4 436,262 436.1,293.1 463,277.5 	"/>
	<polygon class="st12" points="409.1,277.6 409.2,308.7 436.2,324.2 436.1,293.1 	"/>
	<polygon class="st9" points="409.1,277.6 382.2,293.2 382.3,324.3 409.2,308.7 	"/>
	<polygon class="st9" points="382.2,262.1 409.2,277.6 436.1,262 409.1,246.5 	"/>
	<polygon class="st10" points="409.1,246.5 409.2,277.6 436.1,293.1 436.1,262 	"/>
	<polygon class="st13" points="328.7,252.1 355.7,267.6 382.6,252 355.6,236.5 	"/>
	<polygon class="st10" points="328.8,252.1 328.8,283.3 355.8,298.8 355.7,267.6 	"/>
	<polygon class="st12" points="419,194.2 446,209.7 472.9,194.1 445.9,178.6 	"/>
</g>
</svg>
